<mxfile host="app.diagrams.net" modified="2023-10-08T15:45:50.739Z" agent="Mozilla/5.0 (Macintosh; Intel Mac OS X 10_15_7) AppleWebKit/605.1.15 (KHTML, like Gecko) Version/16.6 Safari/605.1.15" etag="Nv7mivSUu6dYV5gd64BY" version="22.0.4" type="github" pages="2">
  <diagram id="tyuZ9ulJ00VkShiqcGIR" name="Stránka-1">
    <mxGraphModel dx="1706" dy="1139" grid="1" gridSize="10" guides="1" tooltips="1" connect="1" arrows="1" fold="1" page="1" pageScale="1" pageWidth="1654" pageHeight="1169" background="#FFFFFF" math="0" shadow="0">
      <root>
        <mxCell id="0" />
        <mxCell id="1" parent="0" />
        <mxCell id="b86m0T5GuSQYJgRvHUSm-3" value="&lt;font style=&quot;font-size: 14px;&quot;&gt;Konec procesu&lt;/font&gt;" style="strokeWidth=3;html=1;shape=mxgraph.flowchart.terminator;whiteSpace=wrap;fillColor=none;strokeColor=#b85450;fillStyle=auto;fontColor=#000000;" parent="1" vertex="1">
          <mxGeometry x="972.5" y="420" width="90" height="60" as="geometry" />
        </mxCell>
        <mxCell id="b86m0T5GuSQYJgRvHUSm-7" value="" style="edgeStyle=orthogonalEdgeStyle;rounded=0;orthogonalLoop=1;jettySize=auto;html=1;fontColor=#000000;" parent="1" source="b86m0T5GuSQYJgRvHUSm-8" target="b86m0T5GuSQYJgRvHUSm-6" edge="1">
          <mxGeometry relative="1" as="geometry" />
        </mxCell>
        <mxCell id="b86m0T5GuSQYJgRvHUSm-13" style="edgeStyle=orthogonalEdgeStyle;rounded=0;orthogonalLoop=1;jettySize=auto;html=1;exitX=0.5;exitY=1;exitDx=0;exitDy=0;exitPerimeter=0;fontColor=#000000;" parent="1" source="b86m0T5GuSQYJgRvHUSm-4" target="b86m0T5GuSQYJgRvHUSm-11" edge="1">
          <mxGeometry relative="1" as="geometry" />
        </mxCell>
        <mxCell id="b86m0T5GuSQYJgRvHUSm-14" style="edgeStyle=orthogonalEdgeStyle;rounded=0;orthogonalLoop=1;jettySize=auto;html=1;entryX=0.5;entryY=0;entryDx=0;entryDy=0;fontColor=#000000;" parent="1" source="b86m0T5GuSQYJgRvHUSm-4" target="b86m0T5GuSQYJgRvHUSm-11" edge="1">
          <mxGeometry relative="1" as="geometry" />
        </mxCell>
        <mxCell id="b86m0T5GuSQYJgRvHUSm-4" value="&lt;font style=&quot;font-size: 14px;&quot;&gt;Start&lt;br&gt;procesu&lt;br&gt;&lt;/font&gt;" style="strokeWidth=3;html=1;shape=mxgraph.flowchart.terminator;whiteSpace=wrap;fillColor=none;strokeColor=#b85450;fillStyle=auto;fontColor=#000000;" parent="1" vertex="1">
          <mxGeometry x="40" y="40" width="90" height="60" as="geometry" />
        </mxCell>
        <mxCell id="b86m0T5GuSQYJgRvHUSm-9" value="" style="edgeStyle=orthogonalEdgeStyle;rounded=0;orthogonalLoop=1;jettySize=auto;html=1;fontColor=#000000;" parent="1" source="b86m0T5GuSQYJgRvHUSm-6" target="b86m0T5GuSQYJgRvHUSm-8" edge="1">
          <mxGeometry relative="1" as="geometry" />
        </mxCell>
        <mxCell id="b86m0T5GuSQYJgRvHUSm-21" style="edgeStyle=orthogonalEdgeStyle;shape=connector;rounded=0;orthogonalLoop=1;jettySize=auto;html=1;exitX=1;exitY=0.5;exitDx=0;exitDy=0;entryX=0;entryY=0.5;entryDx=0;entryDy=0;labelBackgroundColor=default;strokeColor=#000000;strokeWidth=2;align=center;verticalAlign=middle;fontFamily=Helvetica;fontSize=11;fontColor=#000000;endArrow=classic;" parent="1" source="b86m0T5GuSQYJgRvHUSm-6" target="b86m0T5GuSQYJgRvHUSm-20" edge="1">
          <mxGeometry relative="1" as="geometry" />
        </mxCell>
        <mxCell id="b86m0T5GuSQYJgRvHUSm-23" value="NE" style="edgeLabel;html=1;align=center;verticalAlign=middle;resizable=0;points=[];fontSize=11;fontFamily=Helvetica;fontColor=#000000;endArrow=classic;rounded=0;strokeColor=#000000;strokeWidth=2;" parent="b86m0T5GuSQYJgRvHUSm-21" vertex="1" connectable="0">
          <mxGeometry x="0.01" y="1" relative="1" as="geometry">
            <mxPoint as="offset" />
          </mxGeometry>
        </mxCell>
        <mxCell id="b86m0T5GuSQYJgRvHUSm-25" style="edgeStyle=orthogonalEdgeStyle;shape=connector;rounded=0;orthogonalLoop=1;jettySize=auto;html=1;exitX=0.5;exitY=1;exitDx=0;exitDy=0;entryX=0.5;entryY=0;entryDx=0;entryDy=0;labelBackgroundColor=default;strokeColor=#000000;strokeWidth=2;align=center;verticalAlign=middle;fontFamily=Helvetica;fontSize=11;fontColor=#000000;endArrow=classic;" parent="1" source="b86m0T5GuSQYJgRvHUSm-6" target="b86m0T5GuSQYJgRvHUSm-8" edge="1">
          <mxGeometry relative="1" as="geometry" />
        </mxCell>
        <mxCell id="b86m0T5GuSQYJgRvHUSm-26" value="ANO" style="edgeLabel;html=1;align=center;verticalAlign=middle;resizable=0;points=[];fontSize=11;fontFamily=Helvetica;fontColor=#000000;" parent="b86m0T5GuSQYJgRvHUSm-25" vertex="1" connectable="0">
          <mxGeometry x="-0.0194" y="-2" relative="1" as="geometry">
            <mxPoint y="1" as="offset" />
          </mxGeometry>
        </mxCell>
        <mxCell id="b86m0T5GuSQYJgRvHUSm-6" value="&lt;font&gt;Registrovaný&amp;nbsp;&lt;br&gt;užvatel?&lt;br&gt;&lt;/font&gt;" style="rhombus;whiteSpace=wrap;html=1;fillColor=none;strokeColor=#82b366;strokeWidth=3;fillStyle=auto;fontColor=#000000;" parent="1" vertex="1">
          <mxGeometry x="210" y="122.5" width="120" height="105" as="geometry" />
        </mxCell>
        <mxCell id="b86m0T5GuSQYJgRvHUSm-45" style="edgeStyle=orthogonalEdgeStyle;shape=connector;rounded=0;orthogonalLoop=1;jettySize=auto;html=1;entryX=0.5;entryY=0;entryDx=0;entryDy=0;labelBackgroundColor=default;strokeColor=#000000;strokeWidth=2;align=center;verticalAlign=middle;fontFamily=Helvetica;fontSize=11;fontColor=#000000;endArrow=classic;" parent="1" source="b86m0T5GuSQYJgRvHUSm-8" target="b86m0T5GuSQYJgRvHUSm-32" edge="1">
          <mxGeometry relative="1" as="geometry" />
        </mxCell>
        <mxCell id="b86m0T5GuSQYJgRvHUSm-8" value="&lt;font&gt;Login&lt;/font&gt;" style="whiteSpace=wrap;html=1;fillColor=none;strokeColor=#007FFF;strokeWidth=3;fillStyle=auto;fontColor=#000000;" parent="1" vertex="1">
          <mxGeometry x="212.5" y="290" width="115" height="40" as="geometry" />
        </mxCell>
        <mxCell id="b86m0T5GuSQYJgRvHUSm-12" value="" style="edgeStyle=orthogonalEdgeStyle;rounded=0;orthogonalLoop=1;jettySize=auto;html=1;strokeColor=#000000;strokeWidth=2;fontColor=#000000;" parent="1" source="b86m0T5GuSQYJgRvHUSm-4" target="b86m0T5GuSQYJgRvHUSm-11" edge="1">
          <mxGeometry relative="1" as="geometry">
            <mxPoint x="130" y="70" as="sourcePoint" />
            <mxPoint x="340" y="70" as="targetPoint" />
          </mxGeometry>
        </mxCell>
        <mxCell id="b86m0T5GuSQYJgRvHUSm-18" style="edgeStyle=orthogonalEdgeStyle;shape=connector;rounded=0;orthogonalLoop=1;jettySize=auto;html=1;exitX=1;exitY=0.5;exitDx=0;exitDy=0;entryX=0;entryY=0.5;entryDx=0;entryDy=0;labelBackgroundColor=default;strokeColor=#000000;strokeWidth=2;align=center;verticalAlign=middle;fontFamily=Helvetica;fontSize=11;fontColor=#000000;endArrow=classic;" parent="1" source="b86m0T5GuSQYJgRvHUSm-11" target="b86m0T5GuSQYJgRvHUSm-6" edge="1">
          <mxGeometry relative="1" as="geometry" />
        </mxCell>
        <mxCell id="b86m0T5GuSQYJgRvHUSm-11" value="&lt;font&gt;Regresivní &lt;br&gt;webová aplikace&lt;/font&gt;" style="whiteSpace=wrap;html=1;fillColor=none;strokeColor=#007FFF;strokeWidth=3;fillStyle=auto;fontColor=#000000;" parent="1" vertex="1">
          <mxGeometry x="27.5" y="150" width="115" height="50" as="geometry" />
        </mxCell>
        <mxCell id="b86m0T5GuSQYJgRvHUSm-27" style="edgeStyle=orthogonalEdgeStyle;shape=connector;rounded=0;orthogonalLoop=1;jettySize=auto;html=1;exitX=0.5;exitY=1;exitDx=0;exitDy=0;labelBackgroundColor=default;strokeColor=#FFFFFF;strokeWidth=2;align=center;verticalAlign=middle;fontFamily=Helvetica;fontSize=11;fontColor=#000000;endArrow=classic;entryX=1;entryY=0.5;entryDx=0;entryDy=0;" parent="1" source="b86m0T5GuSQYJgRvHUSm-20" target="b86m0T5GuSQYJgRvHUSm-8" edge="1">
          <mxGeometry relative="1" as="geometry">
            <mxPoint x="339.9999999999998" y="310" as="targetPoint" />
          </mxGeometry>
        </mxCell>
        <mxCell id="b86m0T5GuSQYJgRvHUSm-20" value="&lt;font&gt;&lt;span style=&quot;caret-color: rgb(255, 255, 255);&quot;&gt;Registrace &lt;br&gt;uživatele&lt;/span&gt;&lt;/font&gt;" style="whiteSpace=wrap;html=1;fillColor=none;strokeColor=#007FFF;strokeWidth=3;fillStyle=auto;fontColor=#000000;" parent="1" vertex="1">
          <mxGeometry x="400" y="150" width="115" height="50" as="geometry" />
        </mxCell>
        <mxCell id="b86m0T5GuSQYJgRvHUSm-34" style="edgeStyle=orthogonalEdgeStyle;shape=connector;rounded=0;orthogonalLoop=1;jettySize=auto;html=1;exitX=1;exitY=0.5;exitDx=0;exitDy=0;entryX=0;entryY=0.5;entryDx=0;entryDy=0;labelBackgroundColor=default;strokeColor=#000000;strokeWidth=2;align=center;verticalAlign=middle;fontFamily=Helvetica;fontSize=11;fontColor=#000000;endArrow=classic;" parent="1" source="b86m0T5GuSQYJgRvHUSm-32" target="b86m0T5GuSQYJgRvHUSm-33" edge="1">
          <mxGeometry relative="1" as="geometry" />
        </mxCell>
        <mxCell id="b86m0T5GuSQYJgRvHUSm-39" value="NE" style="edgeLabel;html=1;align=center;verticalAlign=middle;resizable=0;points=[];fontSize=11;fontFamily=Helvetica;fontColor=#000000;" parent="b86m0T5GuSQYJgRvHUSm-34" vertex="1" connectable="0">
          <mxGeometry x="-0.0048" y="-3" relative="1" as="geometry">
            <mxPoint as="offset" />
          </mxGeometry>
        </mxCell>
        <mxCell id="b86m0T5GuSQYJgRvHUSm-51" style="edgeStyle=orthogonalEdgeStyle;shape=connector;rounded=0;orthogonalLoop=1;jettySize=auto;html=1;entryX=0.5;entryY=0;entryDx=0;entryDy=0;labelBackgroundColor=default;strokeColor=#000000;strokeWidth=2;align=center;verticalAlign=middle;fontFamily=Helvetica;fontSize=11;fontColor=#000000;endArrow=classic;" parent="1" source="b86m0T5GuSQYJgRvHUSm-32" target="b86m0T5GuSQYJgRvHUSm-50" edge="1">
          <mxGeometry relative="1" as="geometry" />
        </mxCell>
        <mxCell id="b86m0T5GuSQYJgRvHUSm-52" value="&lt;span style=&quot;white-space: pre;&quot;&gt;ANO&lt;/span&gt;" style="edgeLabel;html=1;align=center;verticalAlign=middle;resizable=0;points=[];fontSize=11;fontFamily=Helvetica;fontColor=#000000;" parent="b86m0T5GuSQYJgRvHUSm-51" vertex="1" connectable="0">
          <mxGeometry x="0.0494" y="1" relative="1" as="geometry">
            <mxPoint as="offset" />
          </mxGeometry>
        </mxCell>
        <mxCell id="b86m0T5GuSQYJgRvHUSm-32" value="&lt;font&gt;Nakupování&lt;br&gt;&lt;/font&gt;" style="rhombus;whiteSpace=wrap;html=1;fillColor=none;strokeColor=#82b366;strokeWidth=3;fillStyle=auto;fontColor=#000000;" parent="1" vertex="1">
          <mxGeometry x="210" y="370" width="120" height="105" as="geometry" />
        </mxCell>
        <mxCell id="b86m0T5GuSQYJgRvHUSm-36" style="edgeStyle=orthogonalEdgeStyle;shape=connector;rounded=0;orthogonalLoop=1;jettySize=auto;html=1;exitX=1;exitY=0.5;exitDx=0;exitDy=0;labelBackgroundColor=default;strokeColor=#000000;strokeWidth=2;align=center;verticalAlign=middle;fontFamily=Helvetica;fontSize=11;fontColor=#000000;endArrow=classic;" parent="1" source="b86m0T5GuSQYJgRvHUSm-33" target="b86m0T5GuSQYJgRvHUSm-35" edge="1">
          <mxGeometry relative="1" as="geometry" />
        </mxCell>
        <mxCell id="b86m0T5GuSQYJgRvHUSm-40" value="NE" style="edgeLabel;html=1;align=center;verticalAlign=middle;resizable=0;points=[];fontSize=11;fontFamily=Helvetica;fontColor=#000000;" parent="b86m0T5GuSQYJgRvHUSm-36" vertex="1" connectable="0">
          <mxGeometry x="-0.0429" relative="1" as="geometry">
            <mxPoint as="offset" />
          </mxGeometry>
        </mxCell>
        <mxCell id="b86m0T5GuSQYJgRvHUSm-42" style="edgeStyle=orthogonalEdgeStyle;shape=connector;rounded=0;orthogonalLoop=1;jettySize=auto;html=1;exitX=0.5;exitY=1;exitDx=0;exitDy=0;entryX=0.5;entryY=0;entryDx=0;entryDy=0;labelBackgroundColor=default;strokeColor=#000000;strokeWidth=2;align=center;verticalAlign=middle;fontFamily=Helvetica;fontSize=11;fontColor=#000000;endArrow=classic;" parent="1" source="b86m0T5GuSQYJgRvHUSm-33" target="b86m0T5GuSQYJgRvHUSm-37" edge="1">
          <mxGeometry relative="1" as="geometry" />
        </mxCell>
        <mxCell id="b86m0T5GuSQYJgRvHUSm-43" value="ANO" style="edgeLabel;html=1;align=center;verticalAlign=middle;resizable=0;points=[];fontSize=11;fontFamily=Helvetica;fontColor=#000000;" parent="b86m0T5GuSQYJgRvHUSm-42" vertex="1" connectable="0">
          <mxGeometry x="-0.0026" y="-2" relative="1" as="geometry">
            <mxPoint as="offset" />
          </mxGeometry>
        </mxCell>
        <mxCell id="b86m0T5GuSQYJgRvHUSm-33" value="&lt;font&gt;Zobrazit&amp;nbsp;&lt;br&gt;stav&lt;br&gt;účtu?&lt;br&gt;&lt;/font&gt;" style="rhombus;whiteSpace=wrap;html=1;fillColor=none;strokeColor=#82b366;strokeWidth=3;fillStyle=auto;fontColor=#000000;" parent="1" vertex="1">
          <mxGeometry x="450" y="370" width="120" height="105" as="geometry" />
        </mxCell>
        <mxCell id="b86m0T5GuSQYJgRvHUSm-35" value="&lt;font&gt;Logout&lt;/font&gt;" style="whiteSpace=wrap;html=1;fillColor=none;strokeColor=#007FFF;strokeWidth=3;fillStyle=auto;fontColor=#000000;" parent="1" vertex="1">
          <mxGeometry x="650" y="402.5" width="115" height="40" as="geometry" />
        </mxCell>
        <mxCell id="b86m0T5GuSQYJgRvHUSm-38" style="edgeStyle=orthogonalEdgeStyle;shape=connector;rounded=0;orthogonalLoop=1;jettySize=auto;html=1;labelBackgroundColor=default;strokeColor=#000000;strokeWidth=2;align=center;verticalAlign=middle;fontFamily=Helvetica;fontSize=11;fontColor=#000000;endArrow=classic;entryX=0.5;entryY=0;entryDx=0;entryDy=0;" parent="1" source="b86m0T5GuSQYJgRvHUSm-37" target="b86m0T5GuSQYJgRvHUSm-32" edge="1">
          <mxGeometry relative="1" as="geometry">
            <mxPoint x="270" y="350" as="targetPoint" />
            <Array as="points">
              <mxPoint x="360" y="550" />
              <mxPoint x="360" y="370" />
            </Array>
          </mxGeometry>
        </mxCell>
        <mxCell id="b86m0T5GuSQYJgRvHUSm-37" value="&lt;font&gt;Zobrazení účtu&lt;/font&gt;" style="whiteSpace=wrap;html=1;fillColor=none;strokeColor=#007FFF;strokeWidth=3;fillStyle=auto;fontColor=#000000;" parent="1" vertex="1">
          <mxGeometry x="452.5" y="530" width="115" height="40" as="geometry" />
        </mxCell>
        <mxCell id="b86m0T5GuSQYJgRvHUSm-47" style="edgeStyle=orthogonalEdgeStyle;shape=connector;rounded=0;orthogonalLoop=1;jettySize=auto;html=1;labelBackgroundColor=default;strokeColor=#000000;strokeWidth=2;align=center;verticalAlign=middle;fontFamily=Helvetica;fontSize=11;fontColor=#000000;endArrow=classic;" parent="1" source="b86m0T5GuSQYJgRvHUSm-46" edge="1">
          <mxGeometry relative="1" as="geometry">
            <mxPoint x="270" y="350" as="targetPoint" />
          </mxGeometry>
        </mxCell>
        <mxCell id="b86m0T5GuSQYJgRvHUSm-46" value="&lt;font&gt;AI&lt;/font&gt;" style="whiteSpace=wrap;html=1;fillColor=#d80073;strokeColor=#A50040;strokeWidth=3;fillStyle=auto;glass=0;fontColor=#000000;" parent="1" vertex="1">
          <mxGeometry x="30" y="330" width="120" height="40" as="geometry" />
        </mxCell>
        <mxCell id="b86m0T5GuSQYJgRvHUSm-64" style="edgeStyle=orthogonalEdgeStyle;shape=connector;rounded=0;orthogonalLoop=1;jettySize=auto;html=1;entryX=0.5;entryY=0;entryDx=0;entryDy=0;labelBackgroundColor=default;strokeColor=#000000;strokeWidth=2;align=center;verticalAlign=middle;fontFamily=Helvetica;fontSize=11;fontColor=#000000;endArrow=classic;" parent="1" source="b86m0T5GuSQYJgRvHUSm-50" target="b86m0T5GuSQYJgRvHUSm-56" edge="1">
          <mxGeometry relative="1" as="geometry" />
        </mxCell>
        <mxCell id="b86m0T5GuSQYJgRvHUSm-50" value="&lt;font&gt;Prohlížení/hledání&lt;br&gt;zboží&lt;br&gt;&lt;/font&gt;" style="whiteSpace=wrap;html=1;fillColor=none;strokeColor=#007FFF;strokeWidth=3;fillStyle=auto;fontColor=#000000;" parent="1" vertex="1">
          <mxGeometry x="212.5" y="540" width="115" height="40" as="geometry" />
        </mxCell>
        <mxCell id="b86m0T5GuSQYJgRvHUSm-53" value="Nutno provést analýzu požadavků na login. Následně vypracovat procesní mapu loginu (FORM, FCB, AppleID, Google, atd.)" style="shape=callout;whiteSpace=wrap;html=1;perimeter=calloutPerimeter;fontFamily=Helvetica;fontSize=11;fillColor=none;strokeColor=#000000;fontColor=#000000;strokeWidth=3;" parent="1" vertex="1">
          <mxGeometry x="370" y="40" width="220" height="110" as="geometry" />
        </mxCell>
        <mxCell id="b86m0T5GuSQYJgRvHUSm-54" value="Příklad: Budu B2C platforma s potravinami. AI mně po loginu nabídne předvyplněný košík dle mých zvyklostí a historických nákupů a ročního období atd.&amp;nbsp;" style="shape=callout;whiteSpace=wrap;html=1;perimeter=calloutPerimeter;fontFamily=Helvetica;fontSize=11;fillColor=none;strokeColor=#000000;fontColor=#000000;strokeWidth=3;position2=0.56;direction=west;labelBackgroundColor=none;endArrow=classic;rounded=0;spacing=2;" parent="1" vertex="1">
          <mxGeometry x="10" y="370" width="180" height="130" as="geometry" />
        </mxCell>
        <mxCell id="b86m0T5GuSQYJgRvHUSm-55" value="Zde to na pozadí aplikace nekončí. Budou další procesy...." style="shape=callout;whiteSpace=wrap;html=1;perimeter=calloutPerimeter;fontFamily=Helvetica;fontSize=11;fillColor=none;strokeColor=#000000;fontColor=#000000;strokeWidth=3;labelBackgroundColor=none;endArrow=classic;rounded=0;" parent="1" vertex="1">
          <mxGeometry x="560" y="320" width="250" height="82.5" as="geometry" />
        </mxCell>
        <mxCell id="b86m0T5GuSQYJgRvHUSm-65" style="edgeStyle=orthogonalEdgeStyle;shape=connector;rounded=0;orthogonalLoop=1;jettySize=auto;html=1;entryX=0.5;entryY=0;entryDx=0;entryDy=0;labelBackgroundColor=default;strokeColor=#000000;strokeWidth=2;align=center;verticalAlign=middle;fontFamily=Helvetica;fontSize=11;fontColor=#000000;endArrow=classic;" parent="1" source="b86m0T5GuSQYJgRvHUSm-56" target="b86m0T5GuSQYJgRvHUSm-57" edge="1">
          <mxGeometry relative="1" as="geometry" />
        </mxCell>
        <mxCell id="b86m0T5GuSQYJgRvHUSm-56" value="&lt;font&gt;Přidání položek do košíku&lt;br&gt;&lt;/font&gt;" style="whiteSpace=wrap;html=1;fillColor=none;strokeColor=#007FFF;strokeWidth=3;fillStyle=auto;fontColor=#000000;" parent="1" vertex="1">
          <mxGeometry x="212.5" y="630" width="115" height="50" as="geometry" />
        </mxCell>
        <mxCell id="b86m0T5GuSQYJgRvHUSm-66" style="edgeStyle=orthogonalEdgeStyle;shape=connector;rounded=0;orthogonalLoop=1;jettySize=auto;html=1;exitX=0.5;exitY=1;exitDx=0;exitDy=0;entryX=0.5;entryY=0;entryDx=0;entryDy=0;labelBackgroundColor=default;strokeColor=#000000;strokeWidth=2;align=center;verticalAlign=middle;fontFamily=Helvetica;fontSize=11;fontColor=#000000;endArrow=classic;" parent="1" source="b86m0T5GuSQYJgRvHUSm-57" target="b86m0T5GuSQYJgRvHUSm-58" edge="1">
          <mxGeometry relative="1" as="geometry" />
        </mxCell>
        <mxCell id="b86m0T5GuSQYJgRvHUSm-57" value="&lt;font&gt;Zobrazení košíku&lt;br&gt;&lt;/font&gt;" style="whiteSpace=wrap;html=1;fillColor=none;strokeColor=#007FFF;strokeWidth=3;fillStyle=auto;fontColor=#000000;" parent="1" vertex="1">
          <mxGeometry x="212.5" y="730" width="115" height="50" as="geometry" />
        </mxCell>
        <mxCell id="b86m0T5GuSQYJgRvHUSm-68" style="edgeStyle=orthogonalEdgeStyle;shape=connector;rounded=0;orthogonalLoop=1;jettySize=auto;html=1;exitX=0;exitY=0.5;exitDx=0;exitDy=0;entryX=0;entryY=0.5;entryDx=0;entryDy=0;labelBackgroundColor=default;strokeColor=#000000;strokeWidth=2;align=center;verticalAlign=middle;fontFamily=Helvetica;fontSize=11;fontColor=#000000;endArrow=classic;" parent="1" source="b86m0T5GuSQYJgRvHUSm-58" target="b86m0T5GuSQYJgRvHUSm-50" edge="1">
          <mxGeometry relative="1" as="geometry">
            <Array as="points">
              <mxPoint x="120" y="883" />
              <mxPoint x="120" y="560" />
            </Array>
          </mxGeometry>
        </mxCell>
        <mxCell id="b86m0T5GuSQYJgRvHUSm-69" value="ANO" style="edgeLabel;html=1;align=center;verticalAlign=middle;resizable=0;points=[];fontSize=11;fontFamily=Helvetica;fontColor=#000000;" parent="b86m0T5GuSQYJgRvHUSm-68" vertex="1" connectable="0">
          <mxGeometry x="-0.0264" y="-1" relative="1" as="geometry">
            <mxPoint as="offset" />
          </mxGeometry>
        </mxCell>
        <mxCell id="b86m0T5GuSQYJgRvHUSm-70" style="edgeStyle=orthogonalEdgeStyle;shape=connector;rounded=0;orthogonalLoop=1;jettySize=auto;html=1;exitX=0.5;exitY=1;exitDx=0;exitDy=0;entryX=0.5;entryY=0;entryDx=0;entryDy=0;labelBackgroundColor=default;strokeColor=#000000;strokeWidth=2;align=center;verticalAlign=middle;fontFamily=Helvetica;fontSize=11;fontColor=#000000;endArrow=classic;" parent="1" source="b86m0T5GuSQYJgRvHUSm-58" target="b86m0T5GuSQYJgRvHUSm-59" edge="1">
          <mxGeometry relative="1" as="geometry" />
        </mxCell>
        <mxCell id="b86m0T5GuSQYJgRvHUSm-71" value="ANO" style="edgeLabel;html=1;align=center;verticalAlign=middle;resizable=0;points=[];fontSize=11;fontFamily=Helvetica;fontColor=#000000;" parent="b86m0T5GuSQYJgRvHUSm-70" vertex="1" connectable="0">
          <mxGeometry x="0.0494" y="-2" relative="1" as="geometry">
            <mxPoint as="offset" />
          </mxGeometry>
        </mxCell>
        <mxCell id="b86m0T5GuSQYJgRvHUSm-74" style="edgeStyle=orthogonalEdgeStyle;shape=connector;rounded=0;orthogonalLoop=1;jettySize=auto;html=1;exitX=1;exitY=0.5;exitDx=0;exitDy=0;entryX=0.5;entryY=0;entryDx=0;entryDy=0;labelBackgroundColor=default;strokeColor=#000000;strokeWidth=2;align=center;verticalAlign=middle;fontFamily=Helvetica;fontSize=11;fontColor=#000000;endArrow=classic;" parent="1" source="b86m0T5GuSQYJgRvHUSm-58" target="b86m0T5GuSQYJgRvHUSm-72" edge="1">
          <mxGeometry relative="1" as="geometry" />
        </mxCell>
        <mxCell id="b86m0T5GuSQYJgRvHUSm-75" value="NE" style="edgeLabel;html=1;align=center;verticalAlign=middle;resizable=0;points=[];fontSize=11;fontFamily=Helvetica;fontColor=#000000;" parent="b86m0T5GuSQYJgRvHUSm-74" vertex="1" connectable="0">
          <mxGeometry x="-0.1914" relative="1" as="geometry">
            <mxPoint as="offset" />
          </mxGeometry>
        </mxCell>
        <mxCell id="b86m0T5GuSQYJgRvHUSm-58" value="&lt;font&gt;Změny v košíku&lt;br&gt;&lt;/font&gt;" style="rhombus;whiteSpace=wrap;html=1;fillColor=none;strokeColor=#82b366;strokeWidth=3;fillStyle=auto;fontColor=#000000;" parent="1" vertex="1">
          <mxGeometry x="210" y="830" width="120" height="105" as="geometry" />
        </mxCell>
        <mxCell id="b86m0T5GuSQYJgRvHUSm-73" style="edgeStyle=orthogonalEdgeStyle;shape=connector;rounded=0;orthogonalLoop=1;jettySize=auto;html=1;exitX=1;exitY=0.5;exitDx=0;exitDy=0;entryX=0.5;entryY=1;entryDx=0;entryDy=0;labelBackgroundColor=default;strokeColor=#FFFFFF;strokeWidth=2;align=center;verticalAlign=middle;fontFamily=Helvetica;fontSize=11;fontColor=#000000;endArrow=classic;" parent="1" source="b86m0T5GuSQYJgRvHUSm-59" target="b86m0T5GuSQYJgRvHUSm-72" edge="1">
          <mxGeometry relative="1" as="geometry" />
        </mxCell>
        <mxCell id="b86m0T5GuSQYJgRvHUSm-59" value="&lt;font&gt;Změnit množství u položek&lt;br&gt;&lt;/font&gt;" style="whiteSpace=wrap;html=1;fillColor=none;strokeColor=#007FFF;strokeWidth=3;fillStyle=auto;fontColor=#000000;" parent="1" vertex="1">
          <mxGeometry x="212.5" y="990" width="115" height="50" as="geometry" />
        </mxCell>
        <mxCell id="AvYvzE_Yt6RH5DRUqN7c-3" style="edgeStyle=orthogonalEdgeStyle;shape=connector;rounded=0;orthogonalLoop=1;jettySize=auto;html=1;exitX=1;exitY=0.5;exitDx=0;exitDy=0;entryX=0;entryY=0.5;entryDx=0;entryDy=0;labelBackgroundColor=default;strokeColor=#000000;strokeWidth=2;align=center;verticalAlign=middle;fontFamily=Helvetica;fontSize=11;fontColor=#000000;endArrow=classic;" parent="1" source="b86m0T5GuSQYJgRvHUSm-72" target="AvYvzE_Yt6RH5DRUqN7c-1" edge="1">
          <mxGeometry relative="1" as="geometry" />
        </mxCell>
        <mxCell id="b86m0T5GuSQYJgRvHUSm-72" value="&lt;font&gt;CHECKOUT&lt;br&gt;&lt;/font&gt;" style="whiteSpace=wrap;html=1;fillColor=none;strokeColor=#007FFF;strokeWidth=3;fillStyle=auto;fontColor=#000000;" parent="1" vertex="1">
          <mxGeometry x="422.5" y="905" width="115" height="50" as="geometry" />
        </mxCell>
        <mxCell id="AvYvzE_Yt6RH5DRUqN7c-7" style="edgeStyle=orthogonalEdgeStyle;shape=connector;rounded=0;orthogonalLoop=1;jettySize=auto;html=1;exitX=0.5;exitY=1;exitDx=0;exitDy=0;entryX=0.5;entryY=0;entryDx=0;entryDy=0;labelBackgroundColor=default;strokeColor=#000000;strokeWidth=2;align=center;verticalAlign=middle;fontFamily=Helvetica;fontSize=11;fontColor=#000000;endArrow=classic;" parent="1" source="AvYvzE_Yt6RH5DRUqN7c-1" target="AvYvzE_Yt6RH5DRUqN7c-5" edge="1">
          <mxGeometry relative="1" as="geometry" />
        </mxCell>
        <mxCell id="AvYvzE_Yt6RH5DRUqN7c-1" value="&lt;font&gt;Nákupní košík&lt;br&gt;&lt;/font&gt;" style="whiteSpace=wrap;html=1;fillColor=none;strokeColor=#007FFF;strokeWidth=3;fillStyle=auto;fontColor=#000000;" parent="1" vertex="1">
          <mxGeometry x="650" y="620" width="115" height="50" as="geometry" />
        </mxCell>
        <mxCell id="AvYvzE_Yt6RH5DRUqN7c-9" style="edgeStyle=orthogonalEdgeStyle;shape=connector;rounded=0;orthogonalLoop=1;jettySize=auto;html=1;entryX=0.5;entryY=0;entryDx=0;entryDy=0;labelBackgroundColor=default;strokeColor=#000000;strokeWidth=2;align=center;verticalAlign=middle;fontFamily=Helvetica;fontSize=11;fontColor=#000000;endArrow=classic;" parent="1" source="AvYvzE_Yt6RH5DRUqN7c-5" target="AvYvzE_Yt6RH5DRUqN7c-8" edge="1">
          <mxGeometry relative="1" as="geometry" />
        </mxCell>
        <mxCell id="AvYvzE_Yt6RH5DRUqN7c-5" value="&lt;font&gt;Výběr dodatečných služeb, slevové poukazy&lt;br&gt;&lt;/font&gt;" style="whiteSpace=wrap;html=1;fillColor=none;strokeColor=#007FFF;strokeWidth=3;fillStyle=auto;fontColor=#000000;" parent="1" vertex="1">
          <mxGeometry x="650" y="720" width="115" height="60" as="geometry" />
        </mxCell>
        <mxCell id="AvYvzE_Yt6RH5DRUqN7c-8" value="&lt;font&gt;Výběr způsobu doručení &lt;br&gt;(poštovné a balné)&lt;br&gt;&lt;/font&gt;" style="whiteSpace=wrap;html=1;fillColor=none;strokeColor=#007FFF;strokeWidth=3;fillStyle=auto;fontColor=#000000;" parent="1" vertex="1">
          <mxGeometry x="650" y="830" width="115" height="50" as="geometry" />
        </mxCell>
        <mxCell id="AvYvzE_Yt6RH5DRUqN7c-16" style="edgeStyle=orthogonalEdgeStyle;shape=connector;rounded=0;orthogonalLoop=1;jettySize=auto;html=1;exitX=1;exitY=0.5;exitDx=0;exitDy=0;labelBackgroundColor=default;strokeColor=#000000;strokeWidth=2;align=center;verticalAlign=middle;fontFamily=Helvetica;fontSize=11;fontColor=#000000;endArrow=classic;" parent="1" source="AvYvzE_Yt6RH5DRUqN7c-10" edge="1">
          <mxGeometry relative="1" as="geometry">
            <mxPoint x="1020" y="840" as="targetPoint" />
          </mxGeometry>
        </mxCell>
        <mxCell id="AvYvzE_Yt6RH5DRUqN7c-18" value="ANO" style="edgeLabel;html=1;align=center;verticalAlign=middle;resizable=0;points=[];fontSize=11;fontFamily=Helvetica;fontColor=#000000;" parent="AvYvzE_Yt6RH5DRUqN7c-16" vertex="1" connectable="0">
          <mxGeometry x="0.2726" y="1" relative="1" as="geometry">
            <mxPoint as="offset" />
          </mxGeometry>
        </mxCell>
        <mxCell id="AvYvzE_Yt6RH5DRUqN7c-19" style="edgeStyle=orthogonalEdgeStyle;shape=connector;rounded=0;orthogonalLoop=1;jettySize=auto;html=1;exitX=0.5;exitY=1;exitDx=0;exitDy=0;entryX=0.5;entryY=1;entryDx=0;entryDy=0;labelBackgroundColor=default;strokeColor=#000000;strokeWidth=2;align=center;verticalAlign=middle;fontFamily=Helvetica;fontSize=11;fontColor=#000000;endArrow=classic;" parent="1" source="AvYvzE_Yt6RH5DRUqN7c-10" target="AvYvzE_Yt6RH5DRUqN7c-13" edge="1">
          <mxGeometry relative="1" as="geometry" />
        </mxCell>
        <mxCell id="AvYvzE_Yt6RH5DRUqN7c-20" value="NE" style="edgeLabel;html=1;align=center;verticalAlign=middle;resizable=0;points=[];fontSize=11;fontFamily=Helvetica;fontColor=#000000;" parent="AvYvzE_Yt6RH5DRUqN7c-19" vertex="1" connectable="0">
          <mxGeometry x="-0.1171" y="-1" relative="1" as="geometry">
            <mxPoint as="offset" />
          </mxGeometry>
        </mxCell>
        <mxCell id="AvYvzE_Yt6RH5DRUqN7c-10" value="&lt;font&gt;Schválená&amp;nbsp;&lt;br&gt;platba?&lt;br&gt;&lt;/font&gt;" style="rhombus;whiteSpace=wrap;html=1;fillColor=none;strokeColor=#82b366;strokeWidth=3;fillStyle=auto;fontColor=#000000;" parent="1" vertex="1">
          <mxGeometry x="850" y="912.5" width="120" height="105" as="geometry" />
        </mxCell>
        <mxCell id="AvYvzE_Yt6RH5DRUqN7c-11" style="edgeStyle=orthogonalEdgeStyle;shape=connector;rounded=0;orthogonalLoop=1;jettySize=auto;html=1;exitX=0.5;exitY=1;exitDx=0;exitDy=0;labelBackgroundColor=default;strokeColor=#000000;strokeWidth=2;align=center;verticalAlign=middle;fontFamily=Helvetica;fontSize=11;fontColor=#000000;endArrow=classic;" parent="1" source="AvYvzE_Yt6RH5DRUqN7c-8" edge="1">
          <mxGeometry relative="1" as="geometry">
            <mxPoint x="707" y="940" as="targetPoint" />
          </mxGeometry>
        </mxCell>
        <mxCell id="AvYvzE_Yt6RH5DRUqN7c-14" style="edgeStyle=orthogonalEdgeStyle;shape=connector;rounded=0;orthogonalLoop=1;jettySize=auto;html=1;exitX=1;exitY=0.5;exitDx=0;exitDy=0;entryX=0;entryY=0.5;entryDx=0;entryDy=0;labelBackgroundColor=default;strokeColor=#000000;strokeWidth=2;align=center;verticalAlign=middle;fontFamily=Helvetica;fontSize=11;fontColor=#000000;endArrow=classic;" parent="1" source="AvYvzE_Yt6RH5DRUqN7c-13" target="AvYvzE_Yt6RH5DRUqN7c-10" edge="1">
          <mxGeometry relative="1" as="geometry" />
        </mxCell>
        <mxCell id="AvYvzE_Yt6RH5DRUqN7c-25" style="edgeStyle=orthogonalEdgeStyle;shape=connector;rounded=0;orthogonalLoop=1;jettySize=auto;html=1;exitX=1;exitY=0;exitDx=0;exitDy=0;entryX=0;entryY=0.5;entryDx=0;entryDy=0;labelBackgroundColor=default;strokeColor=#000000;strokeWidth=2;align=center;verticalAlign=middle;fontFamily=Helvetica;fontSize=11;fontColor=#000000;endArrow=classic;" parent="1" source="AvYvzE_Yt6RH5DRUqN7c-13" target="AvYvzE_Yt6RH5DRUqN7c-22" edge="1">
          <mxGeometry relative="1" as="geometry">
            <Array as="points">
              <mxPoint x="850" y="940" />
              <mxPoint x="850" y="695" />
            </Array>
          </mxGeometry>
        </mxCell>
        <mxCell id="AvYvzE_Yt6RH5DRUqN7c-26" value="PLATBA &lt;br&gt;PŘI PŘEVZETÍ" style="edgeLabel;html=1;align=center;verticalAlign=middle;resizable=0;points=[];fontSize=11;fontFamily=Helvetica;fontColor=#000000;strokeColor=#000000;strokeWidth=2;endArrow=classic;rounded=0;" parent="AvYvzE_Yt6RH5DRUqN7c-25" vertex="1" connectable="0">
          <mxGeometry x="0.0108" y="-3" relative="1" as="geometry">
            <mxPoint y="1" as="offset" />
          </mxGeometry>
        </mxCell>
        <mxCell id="AvYvzE_Yt6RH5DRUqN7c-13" value="&lt;font&gt;Forma úhrady&lt;br&gt;Platební údaje obchodníkovi&lt;br&gt;&lt;/font&gt;" style="whiteSpace=wrap;html=1;fillColor=none;strokeColor=#007FFF;strokeWidth=3;fillStyle=auto;fontColor=#000000;" parent="1" vertex="1">
          <mxGeometry x="647.5" y="940" width="115" height="50" as="geometry" />
        </mxCell>
        <mxCell id="AvYvzE_Yt6RH5DRUqN7c-24" style="edgeStyle=orthogonalEdgeStyle;shape=connector;rounded=0;orthogonalLoop=1;jettySize=auto;html=1;exitX=0.5;exitY=0;exitDx=0;exitDy=0;labelBackgroundColor=default;strokeColor=#000000;strokeWidth=2;align=center;verticalAlign=middle;fontFamily=Helvetica;fontSize=11;fontColor=#000000;endArrow=classic;" parent="1" source="AvYvzE_Yt6RH5DRUqN7c-21" target="AvYvzE_Yt6RH5DRUqN7c-22" edge="1">
          <mxGeometry relative="1" as="geometry" />
        </mxCell>
        <mxCell id="AvYvzE_Yt6RH5DRUqN7c-21" value="&lt;font&gt;POS integrace&lt;br&gt;pont-of-sale&lt;br&gt;&lt;/font&gt;" style="whiteSpace=wrap;html=1;fillColor=none;strokeColor=#007FFF;strokeWidth=3;fillStyle=auto;fontColor=#000000;" parent="1" vertex="1">
          <mxGeometry x="960" y="790" width="115" height="50" as="geometry" />
        </mxCell>
        <mxCell id="AvYvzE_Yt6RH5DRUqN7c-29" style="edgeStyle=orthogonalEdgeStyle;shape=connector;rounded=0;orthogonalLoop=1;jettySize=auto;html=1;entryX=0.5;entryY=1;entryDx=0;entryDy=0;labelBackgroundColor=default;strokeColor=#000000;strokeWidth=2;align=center;verticalAlign=middle;fontFamily=Helvetica;fontSize=11;fontColor=#000000;endArrow=classic;" parent="1" source="AvYvzE_Yt6RH5DRUqN7c-22" target="AvYvzE_Yt6RH5DRUqN7c-27" edge="1">
          <mxGeometry relative="1" as="geometry" />
        </mxCell>
        <mxCell id="AvYvzE_Yt6RH5DRUqN7c-22" value="&lt;font&gt;Potvrzení objednávky,&amp;nbsp;&lt;br&gt;faktura&lt;br&gt;&lt;/font&gt;" style="whiteSpace=wrap;html=1;fillColor=none;strokeColor=#007FFF;strokeWidth=3;fillStyle=auto;fontColor=#000000;" parent="1" vertex="1">
          <mxGeometry x="960" y="670" width="115" height="50" as="geometry" />
        </mxCell>
        <mxCell id="AvYvzE_Yt6RH5DRUqN7c-27" value="&lt;font&gt;Logout&lt;br&gt;&lt;/font&gt;" style="whiteSpace=wrap;html=1;fillColor=none;strokeColor=#007FFF;strokeWidth=3;fillStyle=auto;fontColor=#000000;" parent="1" vertex="1">
          <mxGeometry x="960" y="550" width="115" height="50" as="geometry" />
        </mxCell>
        <mxCell id="AvYvzE_Yt6RH5DRUqN7c-28" style="edgeStyle=orthogonalEdgeStyle;shape=connector;rounded=0;orthogonalLoop=1;jettySize=auto;html=1;entryX=0.5;entryY=1;entryDx=0;entryDy=0;entryPerimeter=0;labelBackgroundColor=default;strokeColor=#000000;strokeWidth=2;align=center;verticalAlign=middle;fontFamily=Helvetica;fontSize=11;fontColor=#000000;endArrow=classic;" parent="1" source="AvYvzE_Yt6RH5DRUqN7c-27" target="b86m0T5GuSQYJgRvHUSm-3" edge="1">
          <mxGeometry relative="1" as="geometry" />
        </mxCell>
        <mxCell id="AvYvzE_Yt6RH5DRUqN7c-30" value="Homescreen" style="shape=callout;whiteSpace=wrap;html=1;perimeter=calloutPerimeter;fontFamily=Helvetica;fontSize=11;fillColor=none;strokeColor=#000000;fontColor=#000000;strokeWidth=3;position2=0.22;direction=north;size=40;position=0.29;base=10;" parent="1" vertex="1">
          <mxGeometry x="70" y="260" width="140" height="42.5" as="geometry" />
        </mxCell>
        <mxCell id="AvYvzE_Yt6RH5DRUqN7c-31" value="SKLAD - převodka na distribuční sklad (virtuální, výdejní, expediční, auto, způsobů je X). Zde by i uživatel mohl objednávku stornovat. Viz např. systém na Alza.cz" style="shape=callout;whiteSpace=wrap;html=1;perimeter=calloutPerimeter;fontFamily=Helvetica;fontSize=11;fillColor=none;strokeColor=#000000;fontColor=#000000;strokeWidth=3;direction=south;size=20;position=0.22;" parent="1" vertex="1">
          <mxGeometry x="1070" y="660" width="240" height="90" as="geometry" />
        </mxCell>
      </root>
    </mxGraphModel>
  </diagram>
  <diagram id="3zLY_a6kHb1fwIaK2Pj7" name="Stránka-2">
    <mxGraphModel dx="1405" dy="938" grid="1" gridSize="10" guides="1" tooltips="1" connect="1" arrows="1" fold="1" page="1" pageScale="1" pageWidth="1654" pageHeight="1169" math="0" shadow="0">
      <root>
        <mxCell id="0" />
        <mxCell id="1" parent="0" />
        <mxCell id="oE0jX8ANXpIXpqb9dFIa-4" style="edgeStyle=orthogonalEdgeStyle;shape=connector;rounded=0;orthogonalLoop=1;jettySize=auto;html=1;exitX=0.5;exitY=1;exitDx=0;exitDy=0;exitPerimeter=0;entryX=0.5;entryY=0;entryDx=0;entryDy=0;labelBackgroundColor=default;strokeColor=#000000;strokeWidth=2;align=center;verticalAlign=middle;fontFamily=Helvetica;fontSize=11;fontColor=#000000;endArrow=classic;" edge="1" parent="1" source="83OAjdzvvMaXIqN7D3os-1" target="oE0jX8ANXpIXpqb9dFIa-1">
          <mxGeometry relative="1" as="geometry" />
        </mxCell>
        <mxCell id="83OAjdzvvMaXIqN7D3os-1" value="&lt;font style=&quot;font-size: 14px;&quot;&gt;Start&lt;br&gt;procesu&lt;br&gt;&lt;/font&gt;" style="strokeWidth=3;html=1;shape=mxgraph.flowchart.terminator;whiteSpace=wrap;fillColor=none;strokeColor=#b85450;fillStyle=auto;fontColor=#000000;" vertex="1" parent="1">
          <mxGeometry x="40" y="40" width="90" height="60" as="geometry" />
        </mxCell>
        <mxCell id="iGd0fVxS_imvgxyrdcrS-1" value="&lt;font style=&quot;font-size: 14px;&quot;&gt;Konec procesu&lt;/font&gt;" style="strokeWidth=3;html=1;shape=mxgraph.flowchart.terminator;whiteSpace=wrap;fillColor=none;strokeColor=#b85450;fillStyle=auto;fontColor=#000000;" vertex="1" parent="1">
          <mxGeometry x="1160" y="120" width="90" height="60" as="geometry" />
        </mxCell>
        <mxCell id="oE0jX8ANXpIXpqb9dFIa-7" style="edgeStyle=orthogonalEdgeStyle;shape=connector;rounded=0;orthogonalLoop=1;jettySize=auto;html=1;exitX=1;exitY=0.5;exitDx=0;exitDy=0;entryX=0;entryY=0.5;entryDx=0;entryDy=0;labelBackgroundColor=default;strokeColor=#000000;strokeWidth=2;align=center;verticalAlign=middle;fontFamily=Helvetica;fontSize=11;fontColor=#000000;endArrow=classic;" edge="1" parent="1" source="t9As9oRI9gzyeVlpA5IO-1" target="oE0jX8ANXpIXpqb9dFIa-2">
          <mxGeometry relative="1" as="geometry" />
        </mxCell>
        <mxCell id="oE0jX8ANXpIXpqb9dFIa-8" style="edgeStyle=orthogonalEdgeStyle;shape=connector;rounded=0;orthogonalLoop=1;jettySize=auto;html=1;entryX=0;entryY=0.5;entryDx=0;entryDy=0;labelBackgroundColor=default;strokeColor=#000000;strokeWidth=2;align=center;verticalAlign=middle;fontFamily=Helvetica;fontSize=11;fontColor=#000000;endArrow=classic;" edge="1" parent="1" source="t9As9oRI9gzyeVlpA5IO-1" target="oE0jX8ANXpIXpqb9dFIa-3">
          <mxGeometry relative="1" as="geometry" />
        </mxCell>
        <mxCell id="oE0jX8ANXpIXpqb9dFIa-9" style="edgeStyle=orthogonalEdgeStyle;shape=connector;rounded=0;orthogonalLoop=1;jettySize=auto;html=1;exitX=1;exitY=0.5;exitDx=0;exitDy=0;entryX=0;entryY=0.5;entryDx=0;entryDy=0;labelBackgroundColor=default;strokeColor=#000000;strokeWidth=2;align=center;verticalAlign=middle;fontFamily=Helvetica;fontSize=11;fontColor=#000000;endArrow=classic;" edge="1" parent="1" source="t9As9oRI9gzyeVlpA5IO-1" target="oE0jX8ANXpIXpqb9dFIa-6">
          <mxGeometry relative="1" as="geometry" />
        </mxCell>
        <mxCell id="t9As9oRI9gzyeVlpA5IO-1" value="Požadavek na&amp;nbsp;&lt;br&gt;nýkup" style="whiteSpace=wrap;html=1;fillColor=none;strokeColor=#007FFF;strokeWidth=3;fillStyle=auto;fontColor=#000000;" vertex="1" parent="1">
          <mxGeometry x="27.5" y="250" width="115" height="50" as="geometry" />
        </mxCell>
        <mxCell id="oE0jX8ANXpIXpqb9dFIa-11" style="edgeStyle=orthogonalEdgeStyle;shape=connector;rounded=0;orthogonalLoop=1;jettySize=auto;html=1;exitX=0.5;exitY=1;exitDx=0;exitDy=0;labelBackgroundColor=default;strokeColor=#000000;strokeWidth=2;align=center;verticalAlign=middle;fontFamily=Helvetica;fontSize=11;fontColor=#000000;endArrow=classic;" edge="1" parent="1" source="XJSs3fCkRyb5jJcJYdSm-1">
          <mxGeometry relative="1" as="geometry">
            <mxPoint x="485" y="250" as="targetPoint" />
          </mxGeometry>
        </mxCell>
        <mxCell id="oE0jX8ANXpIXpqb9dFIa-12" value="ANO" style="edgeLabel;html=1;align=center;verticalAlign=middle;resizable=0;points=[];fontSize=11;fontFamily=Helvetica;fontColor=#000000;" vertex="1" connectable="0" parent="oE0jX8ANXpIXpqb9dFIa-11">
          <mxGeometry x="-0.0539" relative="1" as="geometry">
            <mxPoint as="offset" />
          </mxGeometry>
        </mxCell>
        <mxCell id="oE0jX8ANXpIXpqb9dFIa-13" style="edgeStyle=orthogonalEdgeStyle;shape=connector;rounded=0;orthogonalLoop=1;jettySize=auto;html=1;exitX=1;exitY=0.5;exitDx=0;exitDy=0;labelBackgroundColor=default;strokeColor=#000000;strokeWidth=2;align=center;verticalAlign=middle;fontFamily=Helvetica;fontSize=11;fontColor=#000000;endArrow=classic;entryX=0;entryY=0.5;entryDx=0;entryDy=0;" edge="1" parent="1" source="XJSs3fCkRyb5jJcJYdSm-1" target="oE0jX8ANXpIXpqb9dFIa-16">
          <mxGeometry relative="1" as="geometry">
            <mxPoint x="650" y="127.88235294117658" as="targetPoint" />
          </mxGeometry>
        </mxCell>
        <mxCell id="oE0jX8ANXpIXpqb9dFIa-14" value="NE" style="edgeLabel;html=1;align=center;verticalAlign=middle;resizable=0;points=[];fontSize=11;fontFamily=Helvetica;fontColor=#000000;" vertex="1" connectable="0" parent="oE0jX8ANXpIXpqb9dFIa-13">
          <mxGeometry x="0.005" y="-7" relative="1" as="geometry">
            <mxPoint x="-1" as="offset" />
          </mxGeometry>
        </mxCell>
        <mxCell id="XJSs3fCkRyb5jJcJYdSm-1" value="&lt;font&gt;Položky &lt;br&gt;v požadavku&lt;br&gt;&amp;nbsp;jsou zavedené &lt;br&gt;v produktovém &lt;br&gt;modulu?&amp;nbsp;&lt;br&gt;&lt;/font&gt;" style="rhombus;whiteSpace=wrap;html=1;fillColor=none;strokeColor=#82b366;strokeWidth=3;fillStyle=auto;fontColor=#000000;" vertex="1" parent="1">
          <mxGeometry x="410" y="30" width="150" height="130" as="geometry" />
        </mxCell>
        <mxCell id="wCMuzjsILqRFhIDKQ2M_-1" value="Záleží na velikosti podniku a organizačním schématu. Předpokládám víceúrovňově schvalování. Nákupčí a jejich administrativní asistenti zpracované požadavky, nabídky zasílají ke schválení vedoucímu nákupu. Od určité částky např. i majiteli, jednateli apod. (to v diagramu není). Tedy systém by automatizovaně řešil co pustí přes schválení první úrovně, co nikoliv (např. podle částky, položky atd.)" style="shape=callout;whiteSpace=wrap;html=1;perimeter=calloutPerimeter;fontFamily=Helvetica;fontSize=11;fillColor=none;strokeColor=#000000;fontColor=#000000;strokeWidth=3;direction=south;position2=1;base=30;" vertex="1" parent="1">
          <mxGeometry x="210" y="530" width="520" height="80" as="geometry" />
        </mxCell>
        <mxCell id="oE0jX8ANXpIXpqb9dFIa-5" style="edgeStyle=orthogonalEdgeStyle;shape=connector;rounded=0;orthogonalLoop=1;jettySize=auto;html=1;exitX=0.5;exitY=1;exitDx=0;exitDy=0;entryX=0.5;entryY=0;entryDx=0;entryDy=0;labelBackgroundColor=default;strokeColor=#000000;strokeWidth=2;align=center;verticalAlign=middle;fontFamily=Helvetica;fontSize=11;fontColor=#000000;endArrow=classic;" edge="1" parent="1" source="oE0jX8ANXpIXpqb9dFIa-1" target="t9As9oRI9gzyeVlpA5IO-1">
          <mxGeometry relative="1" as="geometry" />
        </mxCell>
        <mxCell id="oE0jX8ANXpIXpqb9dFIa-1" value="Nákupní modul ERP" style="whiteSpace=wrap;html=1;fillColor=none;strokeColor=#007FFF;strokeWidth=3;fillStyle=auto;fontColor=#000000;" vertex="1" parent="1">
          <mxGeometry x="27.5" y="153" width="115" height="50" as="geometry" />
        </mxCell>
        <mxCell id="oE0jX8ANXpIXpqb9dFIa-10" style="edgeStyle=orthogonalEdgeStyle;shape=connector;rounded=0;orthogonalLoop=1;jettySize=auto;html=1;exitX=1;exitY=0.5;exitDx=0;exitDy=0;entryX=0;entryY=0.5;entryDx=0;entryDy=0;labelBackgroundColor=default;strokeColor=#000000;strokeWidth=2;align=center;verticalAlign=middle;fontFamily=Helvetica;fontSize=11;fontColor=#000000;endArrow=classic;" edge="1" parent="1" source="oE0jX8ANXpIXpqb9dFIa-2" target="XJSs3fCkRyb5jJcJYdSm-1">
          <mxGeometry relative="1" as="geometry" />
        </mxCell>
        <mxCell id="oE0jX8ANXpIXpqb9dFIa-2" value="Uživatelský požadavek na nákup" style="whiteSpace=wrap;html=1;fillColor=none;strokeColor=#007FFF;strokeWidth=3;fillStyle=auto;fontColor=#000000;" vertex="1" parent="1">
          <mxGeometry x="210" y="170" width="160" height="50" as="geometry" />
        </mxCell>
        <mxCell id="oE0jX8ANXpIXpqb9dFIa-3" value="Automatizovaný požadavek při poklesu skladového &amp;nbsp;množství pod stanvenou hranici" style="whiteSpace=wrap;html=1;fillColor=none;strokeColor=#007FFF;strokeWidth=3;fillStyle=auto;fontColor=#000000;" vertex="1" parent="1">
          <mxGeometry x="210" y="240" width="160" height="70" as="geometry" />
        </mxCell>
        <mxCell id="oE0jX8ANXpIXpqb9dFIa-6" value="Objednávka - eshop&lt;br&gt;objednaný položka není skladem" style="whiteSpace=wrap;html=1;fillColor=none;strokeColor=#007FFF;strokeWidth=3;fillStyle=auto;fontColor=#000000;" vertex="1" parent="1">
          <mxGeometry x="210" y="330" width="160" height="60" as="geometry" />
        </mxCell>
        <mxCell id="oE0jX8ANXpIXpqb9dFIa-21" style="edgeStyle=orthogonalEdgeStyle;shape=connector;rounded=0;orthogonalLoop=1;jettySize=auto;html=1;entryX=0.5;entryY=0;entryDx=0;entryDy=0;labelBackgroundColor=default;strokeColor=#000000;strokeWidth=2;align=center;verticalAlign=middle;fontFamily=Helvetica;fontSize=11;fontColor=#000000;endArrow=classic;" edge="1" parent="1" source="oE0jX8ANXpIXpqb9dFIa-16" target="oE0jX8ANXpIXpqb9dFIa-19">
          <mxGeometry relative="1" as="geometry" />
        </mxCell>
        <mxCell id="oE0jX8ANXpIXpqb9dFIa-16" value="Požadavek na zavedení položky&amp;nbsp;&lt;br&gt;v produktovém modulu" style="whiteSpace=wrap;html=1;fillColor=none;strokeColor=#007FFF;strokeWidth=3;fillStyle=auto;fontColor=#000000;" vertex="1" parent="1">
          <mxGeometry x="620" y="58.75" width="115" height="72.5" as="geometry" />
        </mxCell>
        <mxCell id="oE0jX8ANXpIXpqb9dFIa-23" style="edgeStyle=orthogonalEdgeStyle;shape=connector;rounded=0;orthogonalLoop=1;jettySize=auto;html=1;exitX=0.5;exitY=1;exitDx=0;exitDy=0;entryX=1;entryY=0.5;entryDx=0;entryDy=0;labelBackgroundColor=default;strokeColor=#000000;strokeWidth=2;align=center;verticalAlign=middle;fontFamily=Helvetica;fontSize=11;fontColor=#000000;endArrow=classic;" edge="1" parent="1" source="oE0jX8ANXpIXpqb9dFIa-19" target="oE0jX8ANXpIXpqb9dFIa-22">
          <mxGeometry relative="1" as="geometry" />
        </mxCell>
        <mxCell id="oE0jX8ANXpIXpqb9dFIa-19" value="Zavedení položky" style="whiteSpace=wrap;html=1;fillColor=none;strokeColor=#007FFF;strokeWidth=3;fillStyle=auto;fontColor=#000000;" vertex="1" parent="1">
          <mxGeometry x="620" y="170" width="115" height="50" as="geometry" />
        </mxCell>
        <mxCell id="_Z07jseFj_erf_OgkCzO-3" style="edgeStyle=orthogonalEdgeStyle;shape=connector;rounded=0;orthogonalLoop=1;jettySize=auto;html=1;exitX=0.5;exitY=1;exitDx=0;exitDy=0;entryX=0.5;entryY=0;entryDx=0;entryDy=0;labelBackgroundColor=default;strokeColor=#000000;strokeWidth=2;align=center;verticalAlign=middle;fontFamily=Helvetica;fontSize=11;fontColor=#000000;endArrow=classic;" edge="1" parent="1" source="oE0jX8ANXpIXpqb9dFIa-22">
          <mxGeometry relative="1" as="geometry">
            <mxPoint x="481.2550000000001" y="350" as="targetPoint" />
          </mxGeometry>
        </mxCell>
        <mxCell id="oE0jX8ANXpIXpqb9dFIa-22" value="Validace požadavku" style="whiteSpace=wrap;html=1;fillColor=none;strokeColor=#007FFF;strokeWidth=3;fillStyle=auto;fontColor=#000000;" vertex="1" parent="1">
          <mxGeometry x="420" y="250" width="122.5" height="50" as="geometry" />
        </mxCell>
        <mxCell id="_Z07jseFj_erf_OgkCzO-15" style="edgeStyle=orthogonalEdgeStyle;shape=connector;rounded=0;orthogonalLoop=1;jettySize=auto;html=1;exitX=1;exitY=0.5;exitDx=0;exitDy=0;entryX=0;entryY=0.5;entryDx=0;entryDy=0;labelBackgroundColor=default;strokeColor=#000000;strokeWidth=2;align=center;verticalAlign=middle;fontFamily=Helvetica;fontSize=11;fontColor=#000000;endArrow=classic;" edge="1" parent="1" source="_Z07jseFj_erf_OgkCzO-4" target="_Z07jseFj_erf_OgkCzO-7">
          <mxGeometry relative="1" as="geometry" />
        </mxCell>
        <mxCell id="_Z07jseFj_erf_OgkCzO-16" value="ANO" style="edgeLabel;html=1;align=center;verticalAlign=middle;resizable=0;points=[];fontSize=11;fontFamily=Helvetica;fontColor=#000000;" vertex="1" connectable="0" parent="_Z07jseFj_erf_OgkCzO-15">
          <mxGeometry x="0.0051" y="1" relative="1" as="geometry">
            <mxPoint as="offset" />
          </mxGeometry>
        </mxCell>
        <mxCell id="_Z07jseFj_erf_OgkCzO-4" value="&lt;font&gt;Lze sloučit&lt;br&gt;s jiným požadavkem?&lt;br&gt;AI&lt;br&gt;&lt;/font&gt;" style="rhombus;whiteSpace=wrap;html=1;fillColor=none;strokeColor=#82b366;strokeWidth=3;fillStyle=auto;fontColor=#000000;" vertex="1" parent="1">
          <mxGeometry x="406.25" y="350" width="150" height="130" as="geometry" />
        </mxCell>
        <mxCell id="_Z07jseFj_erf_OgkCzO-12" style="edgeStyle=orthogonalEdgeStyle;shape=connector;rounded=0;orthogonalLoop=1;jettySize=auto;html=1;exitX=0.5;exitY=1;exitDx=0;exitDy=0;entryX=0.5;entryY=0;entryDx=0;entryDy=0;labelBackgroundColor=default;strokeColor=#000000;strokeWidth=2;align=center;verticalAlign=middle;fontFamily=Helvetica;fontSize=11;fontColor=#000000;endArrow=classic;" edge="1" parent="1" source="_Z07jseFj_erf_OgkCzO-7" target="_Z07jseFj_erf_OgkCzO-11">
          <mxGeometry relative="1" as="geometry" />
        </mxCell>
        <mxCell id="_Z07jseFj_erf_OgkCzO-7" value="Sloučení" style="whiteSpace=wrap;html=1;fillColor=none;strokeColor=#007FFF;strokeWidth=3;fillStyle=auto;fontColor=#000000;" vertex="1" parent="1">
          <mxGeometry x="620" y="320" width="115" height="50" as="geometry" />
        </mxCell>
        <mxCell id="_Z07jseFj_erf_OgkCzO-21" style="edgeStyle=orthogonalEdgeStyle;shape=connector;rounded=0;orthogonalLoop=1;jettySize=auto;html=1;entryX=0.5;entryY=0;entryDx=0;entryDy=0;labelBackgroundColor=default;strokeColor=#000000;strokeWidth=2;align=center;verticalAlign=middle;fontFamily=Helvetica;fontSize=11;fontColor=#000000;endArrow=classic;" edge="1" parent="1" source="_Z07jseFj_erf_OgkCzO-9" target="_Z07jseFj_erf_OgkCzO-19">
          <mxGeometry relative="1" as="geometry" />
        </mxCell>
        <mxCell id="_Z07jseFj_erf_OgkCzO-9" value="Výběrové řízení" style="whiteSpace=wrap;html=1;fillColor=none;strokeColor=#007FFF;strokeWidth=3;fillStyle=auto;fontColor=#000000;" vertex="1" parent="1">
          <mxGeometry x="100" y="470" width="122.5" height="60" as="geometry" />
        </mxCell>
        <mxCell id="_Z07jseFj_erf_OgkCzO-17" style="edgeStyle=orthogonalEdgeStyle;shape=connector;rounded=0;orthogonalLoop=1;jettySize=auto;html=1;exitX=0.5;exitY=1;exitDx=0;exitDy=0;entryX=1;entryY=0.75;entryDx=0;entryDy=0;labelBackgroundColor=default;strokeColor=#000000;strokeWidth=2;align=center;verticalAlign=middle;fontFamily=Helvetica;fontSize=11;fontColor=#000000;endArrow=classic;" edge="1" parent="1" source="_Z07jseFj_erf_OgkCzO-11" target="_Z07jseFj_erf_OgkCzO-9">
          <mxGeometry relative="1" as="geometry" />
        </mxCell>
        <mxCell id="_Z07jseFj_erf_OgkCzO-11" value="Validace požadavku" style="whiteSpace=wrap;html=1;fillColor=none;strokeColor=#007FFF;strokeWidth=3;fillStyle=auto;fontColor=#000000;" vertex="1" parent="1">
          <mxGeometry x="620" y="400" width="115" height="50" as="geometry" />
        </mxCell>
        <mxCell id="_Z07jseFj_erf_OgkCzO-13" style="edgeStyle=orthogonalEdgeStyle;shape=connector;rounded=0;orthogonalLoop=1;jettySize=auto;html=1;exitX=0;exitY=0.5;exitDx=0;exitDy=0;entryX=1;entryY=0.25;entryDx=0;entryDy=0;labelBackgroundColor=default;strokeColor=#000000;strokeWidth=2;align=center;verticalAlign=middle;fontFamily=Helvetica;fontSize=11;fontColor=#000000;endArrow=classic;" edge="1" parent="1" source="_Z07jseFj_erf_OgkCzO-4" target="_Z07jseFj_erf_OgkCzO-9">
          <mxGeometry relative="1" as="geometry" />
        </mxCell>
        <mxCell id="_Z07jseFj_erf_OgkCzO-14" value="NE" style="edgeLabel;html=1;align=center;verticalAlign=middle;resizable=0;points=[];fontSize=11;fontFamily=Helvetica;fontColor=#000000;" vertex="1" connectable="0" parent="_Z07jseFj_erf_OgkCzO-13">
          <mxGeometry x="0.5213" y="-2" relative="1" as="geometry">
            <mxPoint as="offset" />
          </mxGeometry>
        </mxCell>
        <mxCell id="_Z07jseFj_erf_OgkCzO-22" style="edgeStyle=orthogonalEdgeStyle;shape=connector;rounded=0;orthogonalLoop=1;jettySize=auto;html=1;exitX=1;exitY=0.5;exitDx=0;exitDy=0;labelBackgroundColor=default;strokeColor=#000000;strokeWidth=2;align=center;verticalAlign=middle;fontFamily=Helvetica;fontSize=11;fontColor=#000000;endArrow=classic;entryX=0;entryY=0.5;entryDx=0;entryDy=0;" edge="1" parent="1" source="_Z07jseFj_erf_OgkCzO-19" target="_Z07jseFj_erf_OgkCzO-24">
          <mxGeometry relative="1" as="geometry">
            <mxPoint x="310" y="655" as="targetPoint" />
          </mxGeometry>
        </mxCell>
        <mxCell id="_Z07jseFj_erf_OgkCzO-23" value="ANO" style="edgeLabel;html=1;align=center;verticalAlign=middle;resizable=0;points=[];fontSize=11;fontFamily=Helvetica;fontColor=#000000;" vertex="1" connectable="0" parent="_Z07jseFj_erf_OgkCzO-22">
          <mxGeometry x="0.0372" y="-2" relative="1" as="geometry">
            <mxPoint as="offset" />
          </mxGeometry>
        </mxCell>
        <mxCell id="_Z07jseFj_erf_OgkCzO-25" style="edgeStyle=orthogonalEdgeStyle;shape=connector;rounded=0;orthogonalLoop=1;jettySize=auto;html=1;labelBackgroundColor=default;strokeColor=#000000;strokeWidth=2;align=center;verticalAlign=middle;fontFamily=Helvetica;fontSize=11;fontColor=#000000;endArrow=classic;" edge="1" parent="1" source="_Z07jseFj_erf_OgkCzO-19">
          <mxGeometry relative="1" as="geometry">
            <mxPoint x="160" y="800" as="targetPoint" />
          </mxGeometry>
        </mxCell>
        <mxCell id="_Z07jseFj_erf_OgkCzO-26" value="NE" style="edgeLabel;html=1;align=center;verticalAlign=middle;resizable=0;points=[];fontSize=11;fontFamily=Helvetica;fontColor=#000000;" vertex="1" connectable="0" parent="_Z07jseFj_erf_OgkCzO-25">
          <mxGeometry x="-0.0493" relative="1" as="geometry">
            <mxPoint as="offset" />
          </mxGeometry>
        </mxCell>
        <mxCell id="_Z07jseFj_erf_OgkCzO-19" value="&lt;font&gt;Smluvní cena,&lt;br&gt;partner?&lt;br&gt;&lt;/font&gt;" style="rhombus;whiteSpace=wrap;html=1;fillColor=none;strokeColor=#82b366;strokeWidth=3;fillStyle=auto;fontColor=#000000;" vertex="1" parent="1">
          <mxGeometry x="86.25" y="590" width="150" height="130" as="geometry" />
        </mxCell>
        <mxCell id="_Z07jseFj_erf_OgkCzO-33" style="edgeStyle=orthogonalEdgeStyle;shape=connector;rounded=0;orthogonalLoop=1;jettySize=auto;html=1;exitX=1;exitY=0.5;exitDx=0;exitDy=0;entryX=0;entryY=0.5;entryDx=0;entryDy=0;labelBackgroundColor=default;strokeColor=#000000;strokeWidth=2;align=center;verticalAlign=middle;fontFamily=Helvetica;fontSize=11;fontColor=#000000;endArrow=classic;" edge="1" parent="1" source="_Z07jseFj_erf_OgkCzO-24" target="_Z07jseFj_erf_OgkCzO-32">
          <mxGeometry relative="1" as="geometry" />
        </mxCell>
        <mxCell id="_Z07jseFj_erf_OgkCzO-24" value="Objednávka ke schválení" style="whiteSpace=wrap;html=1;fillColor=none;strokeColor=#007FFF;strokeWidth=3;fillStyle=auto;fontColor=#000000;" vertex="1" parent="1">
          <mxGeometry x="320" y="630" width="115" height="50" as="geometry" />
        </mxCell>
        <mxCell id="_Z07jseFj_erf_OgkCzO-28" style="edgeStyle=orthogonalEdgeStyle;shape=connector;rounded=0;orthogonalLoop=1;jettySize=auto;html=1;exitX=1;exitY=0.5;exitDx=0;exitDy=0;labelBackgroundColor=default;strokeColor=#000000;strokeWidth=2;align=center;verticalAlign=middle;fontFamily=Helvetica;fontSize=11;fontColor=#000000;endArrow=classic;entryX=0;entryY=0.5;entryDx=0;entryDy=0;" edge="1" parent="1" source="_Z07jseFj_erf_OgkCzO-27" target="_Z07jseFj_erf_OgkCzO-29">
          <mxGeometry relative="1" as="geometry">
            <mxPoint x="280" y="825.5294117647059" as="targetPoint" />
          </mxGeometry>
        </mxCell>
        <mxCell id="_Z07jseFj_erf_OgkCzO-27" value="Poptávkové řízení" style="whiteSpace=wrap;html=1;fillColor=none;strokeColor=#007FFF;strokeWidth=3;fillStyle=auto;fontColor=#000000;" vertex="1" parent="1">
          <mxGeometry x="100" y="800" width="115" height="50" as="geometry" />
        </mxCell>
        <mxCell id="_Z07jseFj_erf_OgkCzO-41" style="edgeStyle=orthogonalEdgeStyle;shape=connector;rounded=0;orthogonalLoop=1;jettySize=auto;html=1;exitX=1;exitY=0.5;exitDx=0;exitDy=0;entryX=0;entryY=0.5;entryDx=0;entryDy=0;labelBackgroundColor=default;strokeColor=#000000;strokeWidth=2;align=center;verticalAlign=middle;fontFamily=Helvetica;fontSize=11;fontColor=#000000;endArrow=classic;" edge="1" parent="1" source="_Z07jseFj_erf_OgkCzO-29" target="_Z07jseFj_erf_OgkCzO-30">
          <mxGeometry relative="1" as="geometry" />
        </mxCell>
        <mxCell id="_Z07jseFj_erf_OgkCzO-29" value="Zpracování nabídek" style="whiteSpace=wrap;html=1;fillColor=none;strokeColor=#007FFF;strokeWidth=3;fillStyle=auto;fontColor=#000000;" vertex="1" parent="1">
          <mxGeometry x="270" y="800" width="115" height="50" as="geometry" />
        </mxCell>
        <mxCell id="_Z07jseFj_erf_OgkCzO-42" style="edgeStyle=orthogonalEdgeStyle;shape=connector;rounded=0;orthogonalLoop=1;jettySize=auto;html=1;exitX=1;exitY=0.5;exitDx=0;exitDy=0;labelBackgroundColor=default;strokeColor=#000000;strokeWidth=2;align=center;verticalAlign=middle;fontFamily=Helvetica;fontSize=11;fontColor=#000000;endArrow=classic;" edge="1" parent="1" source="_Z07jseFj_erf_OgkCzO-30" target="_Z07jseFj_erf_OgkCzO-31">
          <mxGeometry relative="1" as="geometry" />
        </mxCell>
        <mxCell id="_Z07jseFj_erf_OgkCzO-30" value="Odeslání nabídek ke scvhálení" style="whiteSpace=wrap;html=1;fillColor=none;strokeColor=#007FFF;strokeWidth=3;fillStyle=auto;fontColor=#000000;" vertex="1" parent="1">
          <mxGeometry x="441.25" y="800" width="128.75" height="50" as="geometry" />
        </mxCell>
        <mxCell id="_Z07jseFj_erf_OgkCzO-49" style="edgeStyle=orthogonalEdgeStyle;shape=connector;rounded=0;orthogonalLoop=1;jettySize=auto;html=1;exitX=1;exitY=0.5;exitDx=0;exitDy=0;entryX=0;entryY=0.5;entryDx=0;entryDy=0;labelBackgroundColor=default;strokeColor=#000000;strokeWidth=2;align=center;verticalAlign=middle;fontFamily=Helvetica;fontSize=11;fontColor=#000000;endArrow=classic;" edge="1" parent="1" source="_Z07jseFj_erf_OgkCzO-31" target="_Z07jseFj_erf_OgkCzO-48">
          <mxGeometry relative="1" as="geometry" />
        </mxCell>
        <mxCell id="_Z07jseFj_erf_OgkCzO-51" value="ANO" style="edgeLabel;html=1;align=center;verticalAlign=middle;resizable=0;points=[];fontSize=11;fontFamily=Helvetica;fontColor=#000000;" vertex="1" connectable="0" parent="_Z07jseFj_erf_OgkCzO-49">
          <mxGeometry x="-0.2263" y="-1" relative="1" as="geometry">
            <mxPoint as="offset" />
          </mxGeometry>
        </mxCell>
        <mxCell id="_Z07jseFj_erf_OgkCzO-53" style="edgeStyle=orthogonalEdgeStyle;shape=connector;rounded=0;orthogonalLoop=1;jettySize=auto;html=1;exitX=0.5;exitY=1;exitDx=0;exitDy=0;entryX=1;entryY=0.5;entryDx=0;entryDy=0;labelBackgroundColor=default;strokeColor=#000000;strokeWidth=2;align=center;verticalAlign=middle;fontFamily=Helvetica;fontSize=11;fontColor=#000000;endArrow=classic;" edge="1" parent="1" source="_Z07jseFj_erf_OgkCzO-31" target="_Z07jseFj_erf_OgkCzO-52">
          <mxGeometry relative="1" as="geometry" />
        </mxCell>
        <mxCell id="_Z07jseFj_erf_OgkCzO-54" value="NE" style="edgeLabel;html=1;align=center;verticalAlign=middle;resizable=0;points=[];fontSize=11;fontFamily=Helvetica;fontColor=#000000;" vertex="1" connectable="0" parent="_Z07jseFj_erf_OgkCzO-53">
          <mxGeometry x="0.1418" y="-1" relative="1" as="geometry">
            <mxPoint as="offset" />
          </mxGeometry>
        </mxCell>
        <mxCell id="_Z07jseFj_erf_OgkCzO-31" value="&lt;font&gt;Nabídky OK?&lt;br&gt;&lt;/font&gt;" style="rhombus;whiteSpace=wrap;html=1;fillColor=none;strokeColor=#82b366;strokeWidth=3;fillStyle=auto;fontColor=#000000;" vertex="1" parent="1">
          <mxGeometry x="620" y="760" width="150" height="130" as="geometry" />
        </mxCell>
        <mxCell id="_Z07jseFj_erf_OgkCzO-34" style="edgeStyle=orthogonalEdgeStyle;shape=connector;rounded=0;orthogonalLoop=1;jettySize=auto;html=1;labelBackgroundColor=default;strokeColor=#000000;strokeWidth=2;align=center;verticalAlign=middle;fontFamily=Helvetica;fontSize=11;fontColor=#000000;endArrow=classic;entryX=0;entryY=0.5;entryDx=0;entryDy=0;" edge="1" parent="1" source="_Z07jseFj_erf_OgkCzO-32" target="_Z07jseFj_erf_OgkCzO-35">
          <mxGeometry relative="1" as="geometry">
            <mxPoint x="660" y="600" as="targetPoint" />
          </mxGeometry>
        </mxCell>
        <mxCell id="_Z07jseFj_erf_OgkCzO-36" value="ANO" style="edgeLabel;html=1;align=center;verticalAlign=middle;resizable=0;points=[];fontSize=11;fontFamily=Helvetica;fontColor=#000000;" vertex="1" connectable="0" parent="_Z07jseFj_erf_OgkCzO-34">
          <mxGeometry x="0.0512" y="-2" relative="1" as="geometry">
            <mxPoint as="offset" />
          </mxGeometry>
        </mxCell>
        <mxCell id="_Z07jseFj_erf_OgkCzO-45" style="edgeStyle=orthogonalEdgeStyle;shape=connector;rounded=0;orthogonalLoop=1;jettySize=auto;html=1;exitX=0.5;exitY=1;exitDx=0;exitDy=0;entryX=1;entryY=0.5;entryDx=0;entryDy=0;labelBackgroundColor=default;strokeColor=#000000;strokeWidth=2;align=center;verticalAlign=middle;fontFamily=Helvetica;fontSize=11;fontColor=#000000;endArrow=classic;" edge="1" parent="1" source="_Z07jseFj_erf_OgkCzO-32" target="_Z07jseFj_erf_OgkCzO-44">
          <mxGeometry relative="1" as="geometry" />
        </mxCell>
        <mxCell id="_Z07jseFj_erf_OgkCzO-46" value="NE" style="edgeLabel;html=1;align=center;verticalAlign=middle;resizable=0;points=[];fontSize=11;fontFamily=Helvetica;fontColor=#000000;" vertex="1" connectable="0" parent="_Z07jseFj_erf_OgkCzO-45">
          <mxGeometry x="0.3258" y="-2" relative="1" as="geometry">
            <mxPoint x="1" as="offset" />
          </mxGeometry>
        </mxCell>
        <mxCell id="_Z07jseFj_erf_OgkCzO-32" value="&lt;font&gt;Vše je v &lt;br&gt;objednávce &lt;br&gt;OK?&lt;br&gt;&lt;/font&gt;" style="rhombus;whiteSpace=wrap;html=1;fillColor=none;strokeColor=#82b366;strokeWidth=3;fillStyle=auto;fontColor=#000000;" vertex="1" parent="1">
          <mxGeometry x="482.5" y="605" width="120" height="100" as="geometry" />
        </mxCell>
        <mxCell id="_Z07jseFj_erf_OgkCzO-37" style="edgeStyle=orthogonalEdgeStyle;shape=connector;rounded=0;orthogonalLoop=1;jettySize=auto;html=1;labelBackgroundColor=default;strokeColor=#000000;strokeWidth=2;align=center;verticalAlign=middle;fontFamily=Helvetica;fontSize=11;fontColor=#000000;endArrow=classic;entryX=0;entryY=0.5;entryDx=0;entryDy=0;" edge="1" parent="1" source="_Z07jseFj_erf_OgkCzO-35" target="_Z07jseFj_erf_OgkCzO-38">
          <mxGeometry relative="1" as="geometry">
            <mxPoint x="850" y="655" as="targetPoint" />
          </mxGeometry>
        </mxCell>
        <mxCell id="_Z07jseFj_erf_OgkCzO-35" value="Schválení objednávky" style="whiteSpace=wrap;html=1;fillColor=none;strokeColor=#007FFF;strokeWidth=3;fillStyle=auto;fontColor=#000000;" vertex="1" parent="1">
          <mxGeometry x="680" y="630" width="115" height="50" as="geometry" />
        </mxCell>
        <mxCell id="_Z07jseFj_erf_OgkCzO-65" style="edgeStyle=orthogonalEdgeStyle;shape=connector;rounded=0;orthogonalLoop=1;jettySize=auto;html=1;entryX=0.5;entryY=1;entryDx=0;entryDy=0;labelBackgroundColor=default;strokeColor=#000000;strokeWidth=2;align=center;verticalAlign=middle;fontFamily=Helvetica;fontSize=11;fontColor=#000000;endArrow=classic;" edge="1" parent="1" source="_Z07jseFj_erf_OgkCzO-38" target="_Z07jseFj_erf_OgkCzO-64">
          <mxGeometry relative="1" as="geometry" />
        </mxCell>
        <mxCell id="_Z07jseFj_erf_OgkCzO-38" value="Objednávka" style="whiteSpace=wrap;html=1;fillColor=none;strokeColor=#007FFF;strokeWidth=3;fillStyle=auto;fontColor=#000000;" vertex="1" parent="1">
          <mxGeometry x="850" y="630" width="115" height="50" as="geometry" />
        </mxCell>
        <mxCell id="_Z07jseFj_erf_OgkCzO-47" style="edgeStyle=orthogonalEdgeStyle;shape=connector;rounded=0;orthogonalLoop=1;jettySize=auto;html=1;exitX=0.5;exitY=0;exitDx=0;exitDy=0;entryX=0.5;entryY=1;entryDx=0;entryDy=0;labelBackgroundColor=default;strokeColor=#000000;strokeWidth=2;align=center;verticalAlign=middle;fontFamily=Helvetica;fontSize=11;fontColor=#000000;endArrow=classic;" edge="1" parent="1" source="_Z07jseFj_erf_OgkCzO-44" target="_Z07jseFj_erf_OgkCzO-24">
          <mxGeometry relative="1" as="geometry" />
        </mxCell>
        <mxCell id="_Z07jseFj_erf_OgkCzO-44" value="Požadavek na doplnění objednávky" style="whiteSpace=wrap;html=1;fillColor=none;strokeColor=#007FFF;strokeWidth=3;fillStyle=auto;fontColor=#000000;" vertex="1" parent="1">
          <mxGeometry x="320" y="720" width="115" height="50" as="geometry" />
        </mxCell>
        <mxCell id="_Z07jseFj_erf_OgkCzO-50" style="edgeStyle=orthogonalEdgeStyle;shape=connector;rounded=0;orthogonalLoop=1;jettySize=auto;html=1;exitX=0.5;exitY=0;exitDx=0;exitDy=0;entryX=0.5;entryY=1;entryDx=0;entryDy=0;labelBackgroundColor=default;strokeColor=#000000;strokeWidth=2;align=center;verticalAlign=middle;fontFamily=Helvetica;fontSize=11;fontColor=#000000;endArrow=classic;" edge="1" parent="1" source="_Z07jseFj_erf_OgkCzO-48" target="_Z07jseFj_erf_OgkCzO-38">
          <mxGeometry relative="1" as="geometry" />
        </mxCell>
        <mxCell id="_Z07jseFj_erf_OgkCzO-48" value="Schválení vítězné nabídky" style="whiteSpace=wrap;html=1;fillColor=none;strokeColor=#007FFF;strokeWidth=3;fillStyle=auto;fontColor=#000000;" vertex="1" parent="1">
          <mxGeometry x="843.75" y="800" width="128.75" height="50" as="geometry" />
        </mxCell>
        <mxCell id="_Z07jseFj_erf_OgkCzO-55" style="edgeStyle=orthogonalEdgeStyle;shape=connector;rounded=0;orthogonalLoop=1;jettySize=auto;html=1;exitX=0.5;exitY=0;exitDx=0;exitDy=0;entryX=0.5;entryY=1;entryDx=0;entryDy=0;labelBackgroundColor=default;strokeColor=#000000;strokeWidth=2;align=center;verticalAlign=middle;fontFamily=Helvetica;fontSize=11;fontColor=#000000;endArrow=classic;" edge="1" parent="1" source="_Z07jseFj_erf_OgkCzO-52" target="_Z07jseFj_erf_OgkCzO-29">
          <mxGeometry relative="1" as="geometry" />
        </mxCell>
        <mxCell id="_Z07jseFj_erf_OgkCzO-56" value="ANO" style="edgeLabel;html=1;align=center;verticalAlign=middle;resizable=0;points=[];fontSize=11;fontFamily=Helvetica;fontColor=#000000;" vertex="1" connectable="0" parent="_Z07jseFj_erf_OgkCzO-55">
          <mxGeometry x="0.0902" relative="1" as="geometry">
            <mxPoint as="offset" />
          </mxGeometry>
        </mxCell>
        <mxCell id="_Z07jseFj_erf_OgkCzO-52" value="Požadavek na doplnění nabídek" style="whiteSpace=wrap;html=1;fillColor=none;strokeColor=#007FFF;strokeWidth=3;fillStyle=auto;fontColor=#000000;" vertex="1" parent="1">
          <mxGeometry x="270" y="910" width="115" height="50" as="geometry" />
        </mxCell>
        <mxCell id="_Z07jseFj_erf_OgkCzO-67" style="edgeStyle=orthogonalEdgeStyle;shape=connector;rounded=0;orthogonalLoop=1;jettySize=auto;html=1;entryX=0.5;entryY=1;entryDx=0;entryDy=0;labelBackgroundColor=default;strokeColor=#000000;strokeWidth=2;align=center;verticalAlign=middle;fontFamily=Helvetica;fontSize=11;fontColor=#000000;endArrow=classic;" edge="1" parent="1" source="_Z07jseFj_erf_OgkCzO-64" target="_Z07jseFj_erf_OgkCzO-66">
          <mxGeometry relative="1" as="geometry" />
        </mxCell>
        <mxCell id="_Z07jseFj_erf_OgkCzO-68" value="ANO" style="edgeLabel;html=1;align=center;verticalAlign=middle;resizable=0;points=[];fontSize=11;fontFamily=Helvetica;fontColor=#000000;" vertex="1" connectable="0" parent="_Z07jseFj_erf_OgkCzO-67">
          <mxGeometry x="-0.0206" relative="1" as="geometry">
            <mxPoint as="offset" />
          </mxGeometry>
        </mxCell>
        <mxCell id="_Z07jseFj_erf_OgkCzO-69" style="edgeStyle=orthogonalEdgeStyle;shape=connector;rounded=0;orthogonalLoop=1;jettySize=auto;html=1;exitX=1;exitY=0.5;exitDx=0;exitDy=0;labelBackgroundColor=default;strokeColor=#000000;strokeWidth=2;align=center;verticalAlign=middle;fontFamily=Helvetica;fontSize=11;fontColor=#000000;endArrow=classic;entryX=0;entryY=0.5;entryDx=0;entryDy=0;" edge="1" parent="1" source="_Z07jseFj_erf_OgkCzO-64" target="_Z07jseFj_erf_OgkCzO-19">
          <mxGeometry relative="1" as="geometry">
            <mxPoint x="1080" y="720" as="targetPoint" />
            <Array as="points">
              <mxPoint x="1016" y="502" />
              <mxPoint x="1016" y="1000" />
              <mxPoint x="30" y="1000" />
              <mxPoint x="30" y="655" />
            </Array>
          </mxGeometry>
        </mxCell>
        <mxCell id="_Z07jseFj_erf_OgkCzO-71" value="NE" style="edgeLabel;html=1;align=center;verticalAlign=middle;resizable=0;points=[];fontSize=11;fontFamily=Helvetica;fontColor=#000000;" vertex="1" connectable="0" parent="_Z07jseFj_erf_OgkCzO-69">
          <mxGeometry x="0.0622" y="1" relative="1" as="geometry">
            <mxPoint as="offset" />
          </mxGeometry>
        </mxCell>
        <mxCell id="_Z07jseFj_erf_OgkCzO-72" value="NE" style="edgeLabel;html=1;align=center;verticalAlign=middle;resizable=0;points=[];fontSize=11;fontFamily=Helvetica;fontColor=#000000;" vertex="1" connectable="0" parent="_Z07jseFj_erf_OgkCzO-69">
          <mxGeometry x="-0.72" y="-3" relative="1" as="geometry">
            <mxPoint as="offset" />
          </mxGeometry>
        </mxCell>
        <mxCell id="_Z07jseFj_erf_OgkCzO-73" value="NE" style="edgeLabel;html=1;align=center;verticalAlign=middle;resizable=0;points=[];fontSize=11;fontFamily=Helvetica;fontColor=#000000;" vertex="1" connectable="0" parent="_Z07jseFj_erf_OgkCzO-69">
          <mxGeometry x="0.7632" y="-3" relative="1" as="geometry">
            <mxPoint as="offset" />
          </mxGeometry>
        </mxCell>
        <mxCell id="_Z07jseFj_erf_OgkCzO-64" value="&lt;font&gt;Dodavatel má vše&amp;nbsp;&lt;br&gt;skladem, dodrží nabídnuté ceny? Jiný systém u smluvních...&lt;br&gt;&lt;/font&gt;" style="rhombus;whiteSpace=wrap;html=1;fillColor=none;strokeColor=#82b366;strokeWidth=3;fillStyle=auto;fontColor=#000000;" vertex="1" parent="1">
          <mxGeometry x="819.07" y="420" width="176.87" height="165" as="geometry" />
        </mxCell>
        <mxCell id="_Z07jseFj_erf_OgkCzO-66" value="Objednávka" style="whiteSpace=wrap;html=1;fillColor=none;strokeColor=#007FFF;strokeWidth=3;fillStyle=auto;fontColor=#000000;" vertex="1" parent="1">
          <mxGeometry x="850.63" y="300" width="115" height="50" as="geometry" />
        </mxCell>
      </root>
    </mxGraphModel>
  </diagram>
</mxfile>
